<svg width="2735" height="593" viewBox="0 0 2735 593" fill="none" xmlns="http://www.w3.org/2000/svg">
<g clip-path="url(#clip0)">
<path d="M431.543 382.281L482.743 143.836H90.6968L147.749 382.281H431.543Z" fill="#AB7A5F"/>
<path d="M482.743 143.836H90.6968L99.4738 181.87H471.04L482.743 143.836Z" fill="#724126"/>
<path d="M431.543 398.373H147.749C140.435 398.373 134.583 393.984 133.12 386.67L76.0691 146.761C74.6061 142.372 76.0691 137.984 78.9951 135.058C81.9211 132.132 86.3091 129.207 90.6981 129.207H482.744C487.133 129.207 491.521 130.67 494.447 135.058C497.373 137.984 498.836 143.835 497.373 148.224L446.173 385.207C444.709 392.521 438.857 398.373 431.543 398.373ZM159.451 367.653H419.84L463.726 158.464H109.714L159.451 367.653Z" fill="#041A2E"/>
<path d="M90.697 158.464C83.383 158.464 77.531 154.075 76.068 146.761L64.366 104.338H14.629C5.851 104.338 0 97.0241 0 89.7101C0 82.3961 7.314 75.0811 14.629 75.0811H76.069C83.383 75.0811 89.235 79.4701 90.698 86.7841L105.327 140.91C106.79 148.224 102.401 155.539 95.087 158.464C93.623 158.464 92.16 158.464 90.697 158.464Z" fill="#041A2E"/>
<path d="M416.914 472.978H99.474C70.217 472.978 46.811 449.572 46.811 420.315C46.811 391.058 70.217 367.652 99.474 367.652H416.914C425.691 367.652 431.543 374.966 431.543 382.281C431.543 389.595 424.229 396.91 416.914 396.91H99.474C86.308 396.91 76.068 407.15 76.068 420.316C76.068 433.482 86.308 443.722 99.474 443.722H416.914C425.691 443.722 431.543 451.036 431.543 458.351C433.006 467.127 425.691 472.978 416.914 472.978Z" fill="#041A2E"/>
<path d="M383.269 502.236C406.699 502.236 425.692 483.243 425.692 459.813C425.692 436.384 406.699 417.39 383.269 417.39C359.84 417.39 340.846 436.384 340.846 459.813C340.846 483.243 359.84 502.236 383.269 502.236Z" fill="#724126"/>
<path d="M383.269 474.442C391.349 474.442 397.898 467.892 397.898 459.813C397.898 451.734 391.349 445.184 383.269 445.184C375.19 445.184 368.64 451.734 368.64 459.813C368.64 467.892 375.19 474.442 383.269 474.442Z" fill="#AB7A5F"/>
<path d="M383.269 516.864C351.086 516.864 324.755 490.533 324.755 458.35C324.755 426.167 351.086 399.836 383.269 399.836C415.452 399.836 441.783 426.167 441.783 458.35C441.783 490.533 415.451 516.864 383.269 516.864ZM383.269 432.018C367.178 432.018 355.475 445.184 355.475 459.812C355.475 475.903 368.641 487.606 383.269 487.606C397.897 487.606 411.063 474.44 411.063 459.812C411.063 443.721 397.897 432.018 383.269 432.018Z" fill="#041A2E"/>
<path d="M150.674 502.236C174.104 502.236 193.097 483.243 193.097 459.813C193.097 436.384 174.104 417.39 150.674 417.39C127.244 417.39 108.251 436.384 108.251 459.813C108.251 483.243 127.244 502.236 150.674 502.236Z" fill="#724126"/>
<path d="M150.674 474.442C158.753 474.442 165.303 467.892 165.303 459.813C165.303 451.734 158.753 445.184 150.674 445.184C142.595 445.184 136.045 451.734 136.045 459.813C136.045 467.892 142.595 474.442 150.674 474.442Z" fill="#AB7A5F"/>
<path d="M150.674 516.864C118.491 516.864 92.1602 490.533 92.1602 458.35C92.1602 426.167 118.491 399.836 150.674 399.836C182.857 399.836 209.188 426.167 209.188 458.35C209.188 490.533 182.857 516.864 150.674 516.864ZM150.674 432.018C134.583 432.018 122.88 445.184 122.88 459.812C122.88 475.903 136.046 487.606 150.674 487.606C165.302 487.606 178.468 474.44 178.468 459.812C178.469 443.721 166.766 432.018 150.674 432.018Z" fill="#041A2E"/>
<path d="M219.429 313.527C210.652 313.527 204.8 306.213 204.8 298.898V212.59C204.8 203.813 212.114 197.961 219.429 197.961C228.206 197.961 234.058 205.275 234.058 212.59V298.899C234.057 307.676 228.206 313.527 219.429 313.527Z" fill="#041A2E"/>
<path d="M286.72 313.527C277.943 313.527 272.091 306.213 272.091 298.898V212.59C272.091 203.813 279.405 197.961 286.72 197.961C295.497 197.961 301.349 205.275 301.349 212.59V298.899C301.349 307.676 295.497 313.527 286.72 313.527Z" fill="#041A2E"/>
<path d="M354.011 313.527C345.234 313.527 339.382 306.213 339.382 298.898V212.59C339.382 203.813 346.696 197.961 354.011 197.961C362.788 197.961 368.64 205.275 368.64 212.59V298.899C368.64 307.676 362.789 313.527 354.011 313.527Z" fill="#041A2E"/>
</g>
<path d="M809.64 392H668.65V382.57L690.27 365.55V230.54L665.89 222.72L671.64 211.22H807.34L821.37 207.08V262.28L812.17 265.73L784.34 224.33H724.31V293.1H756.74L773.76 265.04H783.19V333.81L771.69 339.56L756.97 306.21H724.31V378.66H783.19L814.47 332.89L823.67 336.34V396.14L809.64 392ZM872.288 321.85L881.488 310.12H956.928V319.32L947.728 331.05H872.288V321.85ZM1101.07 206.62C1109.5 206.62 1119.31 207.77 1130.51 210.07C1141.7 212.37 1149.83 214.823 1154.89 217.43V263.66H1141.09C1127.59 240.353 1109.81 228.7 1087.73 228.7C1078.22 228.7 1069.56 231.537 1061.74 237.21C1054.07 242.883 1047.94 250.78 1043.34 260.9C1038.89 270.867 1036.67 282.137 1036.67 294.71C1036.67 308.97 1038.89 322.003 1043.34 333.81C1047.78 345.617 1054.53 355.123 1063.58 362.33C1072.62 369.383 1083.82 372.91 1097.16 372.91C1110.34 372.91 1129.51 363.94 1154.66 346L1162.48 358.65L1120.16 391.54C1114.02 393.533 1108.12 394.837 1102.45 395.45C1096.77 396.217 1090.72 396.6 1084.28 396.6C1067.72 396.6 1053 392.69 1040.12 384.87C1027.39 377.05 1017.5 366.317 1010.45 352.67C1003.39 338.87 999.868 323.23 999.868 305.75C999.868 287.81 1005.16 271.25 1015.74 256.07C1026.47 240.737 1039.73 228.7 1055.53 219.96C1071.47 211.067 1086.65 206.62 1101.07 206.62ZM1303.04 206.62C1319.91 206.62 1334.78 210.53 1347.66 218.35C1360.7 226.17 1370.74 236.98 1377.79 250.78C1384.85 264.58 1388.37 280.22 1388.37 297.7C1388.37 315.64 1383.01 332.2 1372.27 347.38C1361.54 362.56 1348.2 374.597 1332.25 383.49C1316.31 392.23 1301.13 396.6 1286.71 396.6C1270 396.6 1255.2 392.767 1242.32 385.1C1229.44 377.28 1219.4 366.47 1212.19 352.67C1205.14 338.87 1201.61 323.23 1201.61 305.75C1201.61 287.81 1206.98 271.25 1217.71 256.07C1228.45 240.737 1241.71 228.7 1257.5 219.96C1273.45 211.067 1288.63 206.62 1303.04 206.62ZM1289.7 228.7C1280.2 228.7 1271.53 231.537 1263.71 237.21C1255.89 242.883 1249.68 250.78 1245.08 260.9C1240.64 271.02 1238.41 282.29 1238.41 294.71C1238.41 309.277 1240.64 322.617 1245.08 334.73C1249.68 346.69 1256.58 356.273 1265.78 363.48C1274.98 370.687 1286.41 374.29 1300.05 374.29C1309.56 374.29 1318.22 371.453 1326.04 365.78C1334.02 360.107 1340.23 352.287 1344.67 342.32C1349.27 332.2 1351.57 320.93 1351.57 308.51C1351.57 293.79 1349.27 280.45 1344.67 268.49C1340.23 256.377 1333.33 246.717 1323.97 239.51C1314.77 232.303 1303.35 228.7 1289.7 228.7ZM1652.73 392H1578.21V382.57L1599.83 365.55V245.03L1540.03 392H1524.62L1464.82 244.11V369.23L1489.43 380.5L1483.68 392H1427.56V382.57L1449.18 365.55V234.45L1424.8 222.72L1430.55 211.22H1486.21L1541.64 349.22L1596.84 211.22H1655.49V220.65L1633.64 237.67V372.91L1658.48 380.5L1652.73 392ZM1917.36 392H1842.84V382.57L1864.46 365.55V245.03L1804.66 392H1789.25L1729.45 244.11V369.23L1754.06 380.5L1748.31 392H1692.19V382.57L1713.81 365.55V234.45L1689.43 222.72L1695.18 211.22H1750.84L1806.27 349.22L1861.47 211.22H1920.12V220.65L1898.27 237.67V372.91L1923.11 380.5L1917.36 392ZM2097.82 392H1956.83V382.57L1978.45 365.55V230.54L1954.07 222.72L1959.82 211.22H2095.52L2109.55 207.08V262.28L2100.35 265.73L2072.52 224.33H2012.49V293.1H2044.92L2061.94 265.04H2071.37V333.81L2059.87 339.56L2045.15 306.21H2012.49V378.66H2071.37L2102.65 332.89L2111.85 336.34V396.14L2097.82 392ZM2327.91 392H2282.14L2234.07 311.27L2223.72 303.91L2227.86 295.4H2240.05C2249.55 295.4 2257.07 292.793 2262.59 287.58C2268.11 282.367 2270.87 275.16 2270.87 265.96C2270.87 254.307 2267.65 244.723 2261.21 237.21C2254.92 229.697 2245.72 225.94 2233.61 225.94C2225.63 225.94 2218.35 228.317 2211.76 233.07V372.68L2236.37 380.5L2230.62 392H2156.1V382.57L2177.72 365.09V230.08L2153.34 222.72L2159.09 211.22H2190.37C2204.01 211.22 2217.43 210.76 2230.62 209.84C2240.43 209.227 2247.64 208.92 2252.24 208.92C2263.12 208.92 2272.78 210.99 2281.22 215.13C2289.65 219.27 2296.17 224.943 2300.77 232.15C2305.37 239.203 2307.67 247.023 2307.67 255.61C2307.67 266.803 2302.84 277.077 2293.18 286.43C2283.52 295.783 2271.86 302.683 2258.22 307.13L2274.78 312.42L2308.13 368.31L2333.66 380.5L2327.91 392ZM2460.9 206.62C2469.33 206.62 2479.14 207.77 2490.34 210.07C2501.53 212.37 2509.66 214.823 2514.72 217.43V263.66H2500.92C2487.42 240.353 2469.64 228.7 2447.56 228.7C2438.05 228.7 2429.39 231.537 2421.57 237.21C2413.9 242.883 2407.77 250.78 2403.17 260.9C2398.72 270.867 2396.5 282.137 2396.5 294.71C2396.5 308.97 2398.72 322.003 2403.17 333.81C2407.61 345.617 2414.36 355.123 2423.41 362.33C2432.45 369.383 2443.65 372.91 2456.99 372.91C2470.17 372.91 2489.34 363.94 2514.49 346L2522.31 358.65L2479.99 391.54C2473.85 393.533 2467.95 394.837 2462.28 395.45C2456.6 396.217 2450.55 396.6 2444.11 396.6C2427.55 396.6 2412.83 392.69 2399.95 384.87C2387.22 377.05 2377.33 366.317 2370.28 352.67C2363.22 338.87 2359.7 323.23 2359.7 305.75C2359.7 287.81 2364.99 271.25 2375.57 256.07C2386.3 240.737 2399.56 228.7 2415.36 219.96C2431.3 211.067 2446.48 206.62 2460.9 206.62ZM2700.13 392H2559.14V382.57L2580.76 365.55V230.54L2556.38 222.72L2562.13 211.22H2697.83L2711.86 207.08V262.28L2702.66 265.73L2674.83 224.33H2614.8V293.1H2647.23L2664.25 265.04H2673.68V333.81L2662.18 339.56L2647.46 306.21H2614.8V378.66H2673.68L2704.96 332.89L2714.16 336.34V396.14L2700.13 392Z" fill="black"/>
<defs>
<clipPath id="clip0">
<rect width="497.945" height="497.945" fill="white" transform="translate(0 47)"/>
</clipPath>
</defs>
</svg>
